<?xml version="1.0" encoding="utf-8"?>
<!-- Generator: Adobe Illustrator 28.2.0, SVG Export Plug-In . SVG Version: 6.00 Build 0)  -->
<svg version="1.1" id="Layer_1" xmlns="http://www.w3.org/2000/svg" xmlns:xlink="http://www.w3.org/1999/xlink" x="0px" y="0px"
	 viewBox="0 0 160.16 126.66" style="enable-background:new 0 0 160.16 126.66;" xml:space="preserve">
<style type="text/css">
	.st0{fill:#FFFFFF;}
	.st1{fill:#D6BF91;}
	.st2{fill:#A19C97;}
</style>
<path class="st0" d="M28.46,44.16v7.4l3.83-0.28c0.95-0.44,1.93-1.01,1.93-3.4c0-1.81-0.08-3.72-3.59-3.72H28.46z M24.81,44.23
	l-2.06-0.6v-1.49h8.05c5.24,0,7.17,1.67,7.17,5.63c0,3.7-2.11,5.62-6.26,5.62h-3.25v5.93l2.08,0.6v1.38H22.7v-1.38l2.11-0.6V44.23z"
	/>
<path class="st0" d="M65.26,44.18v7.3l3.88-0.26c1.23-0.61,1.83-1.59,1.83-3.6c0-2.11-0.68-3.44-2.87-3.44H65.26z M67.87,53.15h-2.6
	v6.18l2.09,0.6v1.38H59.5v-1.38l2.11-0.6v-15.1l-2.09-0.6v-1.49h8.4c4.98,0,6.79,1.77,6.79,5.16c0,2.62-1.02,3.99-3.39,4.93
	l3.55,6.93l2.29,0.76v1.38h-5.34L67.87,53.15z"/>
<path class="st0" d="M84.49,44.18v15.15h2.74c1.88,0,5.13-0.31,5.13-7.22c0-5.45-0.98-7.93-5.13-7.93H84.49z M78.73,59.92l2.09-0.57
	V44.23l-2.06-0.6v-1.49h9.26c5.24,0,8.3,3.16,8.3,9.37c0,7.03-3.17,9.79-8.7,9.79h-8.89V59.92z"/>
<path class="st0" d="M30.81,71.29c0,2.33-1.35,3.19-3.56,3.19c-2.22,0-3.55-1.31-3.55-3.19v-4.67l-1-0.31v-0.88h4.08v0.88
	l-0.99,0.31v4.67c0,1.21,0.46,1.86,1.78,1.86c0.64,0,1.73-0.2,1.73-1.92v-4.61l-1-0.31v-0.88h3.51v0.88l-1,0.31V71.29z"/>
<polygon class="st0" points="37.85,68.88 37.85,73.17 38.84,73.47 38.84,74.34 35.39,74.34 35.39,73.47 36.4,73.17 36.4,67.09 
	35.97,66.55 35.38,66.36 35.38,65.43 37.63,65.43 41.98,70.9 41.98,66.62 40.98,66.32 40.98,65.43 44.43,65.43 44.43,66.32 
	43.43,66.62 43.43,74.35 42.26,74.35 "/>
<polygon class="st0" points="51.86,73.17 52.86,73.47 52.86,74.34 48.77,74.34 48.77,73.47 49.77,73.17 49.77,66.61 48.77,66.31 
	48.77,65.43 52.86,65.43 52.86,66.31 51.86,66.61 "/>
<polygon class="st0" points="107.03,73.17 108.03,73.47 108.03,74.34 103.93,74.34 103.93,73.47 104.93,73.17 104.93,66.61 
	103.93,66.31 103.93,65.43 108.03,65.43 108.03,66.31 107.03,66.61 "/>
<polygon class="st0" points="62.24,74.34 60.31,74.34 57.48,66.62 56.48,66.31 56.48,65.43 60.79,65.43 60.79,66.31 59.78,66.62 
	61.66,72.11 63.57,66.62 62.57,66.31 62.57,65.43 66.08,65.43 66.08,66.31 65.08,66.62 "/>
<polygon class="st0" points="70.35,66.62 69.35,66.32 69.35,65.43 76.35,65.43 76.42,68.18 75.3,68.18 74.76,66.61 72.45,66.61 
	72.45,69.11 74.76,69.11 74.76,70.38 72.45,70.38 72.45,73.2 74.82,73.2 75.53,71.63 76.62,71.63 76.47,74.34 69.35,74.34 
	69.35,73.47 70.35,73.22 "/>
<path class="st0" d="M84.23,66.62v3.12l1.41-0.12c0.47-0.34,0.7-0.93,0.7-1.55c0-0.89-0.24-1.45-1.15-1.45H84.23z M84.99,70.7h-0.76
	v2.47l1,0.3v0.87h-4.1v-0.87l1-0.3v-6.55l-1-0.3v-0.89h4.07c2.49,0,3.26,0.96,3.26,2.47c0,0.99-0.22,1.89-1.44,2.33l1.43,2.91
	l1.25,0.38v0.82H86.7L84.99,70.7z"/>
<path class="st0" d="M93.34,71.57h1.24l0.27,1.25c0.52,0.32,1.19,0.52,1.88,0.52c0.1,0,0.19,0,0.29-0.01
	c0.35-0.28,0.55-0.64,0.55-1.07c0-2.08-4.26-1.16-4.26-4.2c0-1.4,1.28-2.74,3.4-2.74c0.77,0,1.63,0.22,2.42,0.61v2.35h-1.17
	l-0.42-1.49c-0.42-0.18-1.01-0.29-1.44-0.29c-0.08,0-0.16,0-0.24,0.01c-0.4,0.28-0.59,0.63-0.59,1.05c0,1.78,4.23,1.14,4.23,4.13
	c0,1.61-1.46,2.77-3.42,2.77c-0.84,0-1.98-0.28-2.71-0.81L93.34,71.57z"/>
<polygon class="st0" points="115.1,66.63 113.95,66.63 113.42,68.22 112.3,68.22 112.3,65.43 120.07,65.43 120.07,68.22 
	118.97,68.22 118.45,66.63 117.2,66.63 117.2,73.17 118.2,73.47 118.2,74.34 114.1,74.34 114.1,73.47 115.1,73.17 "/>
<polygon class="st0" points="127.06,70.91 124.72,66.62 123.72,66.31 123.72,65.43 128.03,65.43 128.03,66.31 127.02,66.62 
	128.49,69.52 129.97,66.62 128.97,66.31 128.97,65.43 132.49,65.43 132.49,66.31 131.49,66.62 129.14,70.88 129.14,73.17 
	130.14,73.47 130.14,74.34 126.05,74.34 126.05,73.47 127.06,73.17 "/>
<polygon class="st0" points="130.83,55.75 129.47,59.32 123.47,59.32 123.47,52.43 126.87,52.43 127.31,54.36 128.82,54.36 
	128.82,48.55 127.31,48.55 126.87,50.42 123.47,50.42 123.47,44.18 129.21,44.18 130.31,47.88 132.37,47.88 132.24,42.14 
	117.74,42.14 117.74,43.63 119.8,44.23 119.8,59.35 117.71,59.92 117.71,61.31 132.53,61.31 132.87,55.75 "/>
<path class="st0" d="M55.8,54.72c0,4.86-2.32,6.88-7.08,6.88c-4.38,0-7.55-1.75-7.55-6.37v-11l-2.08-0.6v-1.49h7.82v1.49l-2.09,0.6
	v11c0,2.76,1.28,3.98,4.33,3.98c2.1,0,4.04-1.23,4.04-4.23V44.23l-2.06-0.6v-1.49h6.75v1.49l-2.09,0.6V54.72z"/>
<path class="st0" d="M114.01,54.72c0,4.86-2.32,6.88-7.08,6.88c-4.38,0-7.55-1.75-7.55-6.37v-11l-2.08-0.6v-1.49h7.82v1.49
	l-2.09,0.6v11c0,2.76,1.28,3.98,4.33,3.98c2.1,0,4.04-1.23,4.04-4.23V44.23l-2.06-0.6v-1.49h6.75v1.49l-2.09,0.6V54.72z"/>
<path class="st1" d="M80.17,33.63l4.12-9.68h6.83c9.88,0,13.63-4.06,16.22-10.15c0.96-2.25,2.57-6.03,0.44-9.24
	C105.68,1.37,101.2,1,98.01,1H61.72L56.6,13.02h6.57l-3.65,8.59h-6.58l-5.12,12.02H80.17z"/>
<path class="st2" d="M105.93,5.79c-1.15-1.75-3.67-2.56-7.92-2.56H63.2l-3.22,7.56h6.57l-5.55,13.05h-6.58l-3.22,7.57H78.7
	l3.22-7.57h-6.67l0.9-2.11h14.97c9.63,0,12.2-4.16,14.17-8.79C106.36,10.44,107.28,7.83,105.93,5.79 M80.8,10.79h11
	c1.52,0,1.3,0.76,1.1,1.23c-0.56,1.32-1.91,2.14-3.52,2.14H79.37L80.8,10.79z"/>
<path d="M98.01,4.39H63.96l-2.23,5.24h6.57l-6.54,15.36h-6.58l-2.24,5.25h24.99l2.23-5.25H73.5l1.89-4.43h15.74
	c9.02,0,11.29-3.82,13.11-8.08C106.04,8.21,107.03,4.39,98.01,4.39 M89.38,15.32H77.61l2.42-5.69H91.8c2.08,0,2.92,1.07,2.17,2.84
	C93.21,14.25,91.46,15.32,89.38,15.32"/>
<path class="st2" d="M134.92,70.89c-0.84,0-1.52,0.68-1.52,1.51c0,0.84,0.68,1.52,1.52,1.52c0.84,0,1.52-0.68,1.52-1.52
	C136.44,71.57,135.76,70.89,134.92,70.89 M134.92,74.32c-1.05,0-1.91-0.86-1.91-1.91s0.86-1.91,1.91-1.91
	c1.05,0,1.91,0.86,1.91,1.91S135.98,74.32,134.92,74.32"/>
<path class="st2" d="M134.68,72.27H135c0.21,0,0.29-0.08,0.29-0.23c0-0.14-0.09-0.23-0.28-0.23h-0.33V72.27z M134.68,72.58v0.71
	h-0.38v-1.77h0.78c0.39,0,0.6,0.21,0.6,0.49c0,0.24-0.13,0.37-0.26,0.42c0.09,0.03,0.22,0.12,0.22,0.44v0.09
	c0,0.12,0,0.25,0.02,0.34h-0.37c-0.03-0.08-0.04-0.21-0.04-0.4v-0.03c0-0.19-0.05-0.29-0.33-0.29H134.68z"/>
<g>
	<path class="st0" d="M40.56,93.32h1.16v6.47h2.59l-0.12,0.99h-3.62V93.32z"/>
	<path class="st0" d="M45.03,95.13h1.14v5.65h-1.14V95.13z M45.04,94.21v-1.25h1.14v1.25H45.04z"/>
	<path class="st0" d="M47.35,92.96h1.13v2.79c0.19-0.38,0.57-0.73,1.29-0.73c1.13,0,1.65,0.98,1.65,2.78c0,1.77-0.45,3.07-1.82,3.07
		c-0.74,0-1-0.36-1.17-0.68c0,0.14-0.01,0.4-0.02,0.58h-1.08c0.01-0.35,0.01-0.97,0.01-1.57V92.96z M49.39,96.01
		c-0.71,0-0.95,0.57-0.95,1.97c0,1.33,0.2,1.92,0.89,1.92c0.66,0,0.94-0.64,0.94-2.08C50.27,96.62,50.05,96.01,49.39,96.01z"/>
	<path class="st0" d="M52.36,97.04c0-0.91,0-1.51-0.01-1.91h1.09c0.01,0.11,0.03,0.36,0.03,0.96c0.22-0.66,0.74-1.04,1.49-1.04v1.26
		c-0.93,0-1.45,0.38-1.45,1.44v3.04h-1.14V97.04z"/>
	<path class="st0" d="M59.29,99.62c0,0.31,0.03,0.92,0.04,1.16H58.3c-0.02-0.12-0.06-0.38-0.06-0.56c-0.21,0.38-0.6,0.66-1.3,0.66
		c-1.08,0-1.5-0.86-1.5-1.66c0-1.12,0.77-1.85,2.22-1.85c0.21,0,0.36,0,0.51,0.02v-0.67c0-0.36-0.07-0.8-0.69-0.8
		c-0.64,0-0.7,0.43-0.74,0.8h-1.08c0.02-0.83,0.41-1.69,1.86-1.69c1.17,0,1.76,0.55,1.76,1.62V99.62z M58.2,98.23
		c-0.13-0.02-0.26-0.02-0.47-0.02c-0.83,0-1.14,0.4-1.14,0.91c0,0.41,0.2,0.83,0.73,0.83c0.71,0,0.89-0.53,0.89-1.49V98.23z"/>
	<path class="st0" d="M60.46,97.04c0-0.91,0-1.51-0.01-1.91h1.09c0.01,0.11,0.03,0.36,0.03,0.96c0.22-0.66,0.74-1.04,1.49-1.04v1.26
		c-0.93,0-1.45,0.38-1.45,1.44v3.04h-1.14V97.04z"/>
	<path class="st0" d="M63.8,95.13h1.14v5.65H63.8V95.13z M63.81,94.21v-1.25h1.14v1.25H63.81z"/>
	<path class="st0" d="M67.04,98.23c0,0.85,0.12,1.71,0.9,1.71c0.73,0,0.83-0.65,0.85-0.84h1.1c-0.02,0.17-0.17,1.79-1.97,1.79
		c-1.77,0-2.02-1.54-2.02-2.96c0-1.79,0.66-2.9,2.06-2.9c1.59,0,1.98,1.23,1.98,2.68c0,0.17-0.01,0.41-0.02,0.52H67.04z M68.8,97.39
		c0-0.69-0.11-1.42-0.85-1.42c-0.85,0-0.89,1.01-0.9,1.42H68.8z"/>
	<path class="st0" d="M71.69,99.1c0.01,0.46,0.24,0.9,0.83,0.9c0.5,0,0.73-0.29,0.73-0.7c0-0.46-0.22-0.69-0.91-0.96
		c-1.28-0.47-1.61-0.92-1.61-1.74c0-0.76,0.47-1.57,1.76-1.57c1.41,0,1.77,0.96,1.77,1.71h-1.1c0-0.22-0.04-0.82-0.7-0.82
		c-0.41,0-0.62,0.25-0.62,0.62c0,0.39,0.2,0.57,0.91,0.84c1.17,0.44,1.63,0.88,1.63,1.8c0,1.09-0.68,1.72-1.91,1.72
		c-1.29,0-1.88-0.77-1.89-1.78H71.69z"/>
	<path class="st0" d="M80.88,99.62c0,0.31,0.03,0.92,0.04,1.16h-1.03c-0.02-0.12-0.06-0.38-0.06-0.56c-0.21,0.38-0.6,0.66-1.3,0.66
		c-1.08,0-1.5-0.86-1.5-1.66c0-1.12,0.77-1.85,2.22-1.85c0.21,0,0.36,0,0.51,0.02v-0.67c0-0.36-0.07-0.8-0.69-0.8
		c-0.64,0-0.7,0.43-0.74,0.8h-1.08c0.02-0.83,0.41-1.69,1.86-1.69c1.17,0,1.76,0.55,1.76,1.62V99.62z M79.79,98.23
		c-0.13-0.02-0.26-0.02-0.47-0.02c-0.83,0-1.14,0.4-1.14,0.91c0,0.41,0.2,0.83,0.73,0.83c0.71,0,0.89-0.53,0.89-1.49V98.23z"/>
	<path class="st0" d="M82.05,96.89c0-1.17,0-1.47-0.01-1.76h1.1c0.02,0.14,0.03,0.37,0.03,0.64c0.18-0.35,0.54-0.74,1.29-0.74
		c0.88,0,1.45,0.54,1.45,1.72v4.04h-1.14V97c0-0.61-0.15-0.99-0.71-0.99c-0.59,0-0.86,0.35-0.86,1.32v3.45h-1.14V96.89z"/>
	<path class="st0" d="M90.94,92.96v6.29c0,0.63,0,1.2,0.01,1.53h-1.1c-0.01-0.14-0.03-0.46-0.03-0.66
		c-0.17,0.44-0.52,0.76-1.29,0.76c-1.18,0-1.66-1.05-1.66-2.98c0-1.75,0.59-2.87,1.87-2.87c0.65,0,0.95,0.25,1.06,0.5v-2.56H90.94z
		 M88.9,99.9c0.75,0,0.92-0.59,0.92-2.02c0-1.42-0.14-1.87-0.86-1.87c-0.58,0-0.95,0.47-0.95,1.91C88.02,99.34,88.31,99.9,88.9,99.9
		z"/>
	<path class="st0" d="M95.02,98.73c0.07,0.67,0.35,1.24,1.08,1.24c0.7,0,1-0.42,1-1.08c0-0.67-0.31-1.04-1.28-1.52
		c-1.24-0.58-1.75-1.11-1.75-2.21c0-1.13,0.74-1.96,2.04-1.96c1.6,0,2,1.1,2.02,2.04H97c-0.04-0.4-0.15-1.11-0.91-1.11
		c-0.59,0-0.86,0.4-0.86,0.93c0,0.59,0.26,0.88,1.17,1.3c1.32,0.62,1.88,1.22,1.88,2.43c0,1.17-0.7,2.1-2.21,2.1
		c-1.64,0-2.15-1.06-2.2-2.17H95.02z"/>
	<path class="st0" d="M102.93,98.93c-0.02,0.4-0.13,1.95-1.93,1.95c-1.57,0-1.98-1.3-1.98-2.97c0-1.53,0.51-2.88,2.05-2.88
		c1.78,0,1.85,1.57,1.86,1.88h-1.16c-0.01-0.22-0.06-0.94-0.72-0.94c-0.65,0-0.88,0.73-0.88,1.95c0,1.28,0.23,2,0.86,2
		c0.68,0,0.75-0.68,0.78-0.99H102.93z"/>
	<path class="st0" d="M104.93,92.96v2.76c0.21-0.4,0.59-0.69,1.3-0.69c0.9,0,1.42,0.57,1.42,1.75v4h-1.14v-3.77c0-0.6-0.13-1-0.74-1
		c-0.64,0-0.84,0.51-0.84,1.34v3.43h-1.13v-7.82H104.93z"/>
	<path class="st0" d="M112.71,97.9c0,2.04-0.73,2.99-2.08,2.99s-2.06-0.92-2.06-2.97c0-1.98,0.83-2.89,2.11-2.89
		C112.01,95.03,112.71,96.01,112.71,97.9z M109.73,97.92c0,1.32,0.26,2,0.92,2c0.64,0,0.9-0.68,0.9-1.99c0-1.32-0.26-1.94-0.9-1.94
		C110.03,95.99,109.73,96.6,109.73,97.92z"/>
	<path class="st0" d="M117.57,97.9c0,2.04-0.73,2.99-2.08,2.99s-2.06-0.92-2.06-2.97c0-1.98,0.83-2.89,2.11-2.89
		C116.87,95.03,117.57,96.01,117.57,97.9z M114.59,97.92c0,1.32,0.26,2,0.92,2c0.64,0,0.9-0.68,0.9-1.99c0-1.32-0.26-1.94-0.9-1.94
		C114.89,95.99,114.59,96.6,114.59,97.92z"/>
	<path class="st0" d="M118.53,100.78v-7.82h1.14v7.82H118.53z"/>
	<path class="st0" d="M41.01,109.9c0,2.04-0.73,2.99-2.08,2.99c-1.35,0-2.06-0.92-2.06-2.97c0-1.98,0.83-2.89,2.11-2.89
		C40.31,107.03,41.01,108.01,41.01,109.9z M38.03,109.92c0,1.32,0.26,2,0.92,2c0.64,0,0.9-0.68,0.9-1.99c0-1.32-0.26-1.94-0.9-1.94
		C38.33,107.99,38.03,108.6,38.03,109.92z"/>
	<path class="st0" d="M42.12,112.78v-4.71h-0.68v-0.95h0.68v-0.63c0-0.91,0.4-1.61,1.48-1.61c0.18,0,0.4,0.02,0.51,0.05v0.97
		c-0.1-0.02-0.21-0.03-0.33-0.03c-0.4,0-0.52,0.23-0.52,0.68v0.56h0.84v0.95h-0.84v4.71H42.12z"/>
	<path class="st0" d="M47.9,105.32v7.46h-1.16v-7.46H47.9z"/>
	<path class="st0" d="M49.15,108.89c0-1.17,0-1.47-0.01-1.76h1.1c0.02,0.14,0.03,0.37,0.03,0.64c0.18-0.35,0.54-0.74,1.29-0.74
		c0.88,0,1.45,0.54,1.45,1.72v4.04h-1.14V109c0-0.61-0.15-0.99-0.71-0.99c-0.59,0-0.86,0.35-0.86,1.32v3.45h-1.14V108.89z"/>
	<path class="st0" d="M54.37,112.78v-4.71h-0.68v-0.95h0.68v-0.63c0-0.91,0.4-1.61,1.49-1.61c0.18,0,0.4,0.02,0.51,0.05v0.97
		c-0.1-0.02-0.21-0.03-0.33-0.03c-0.4,0-0.52,0.23-0.52,0.68v0.56h0.84v0.95h-0.84v4.71H54.37z"/>
	<path class="st0" d="M60.83,109.9c0,2.04-0.73,2.99-2.08,2.99s-2.06-0.92-2.06-2.97c0-1.98,0.83-2.89,2.11-2.89
		C60.12,107.03,60.83,108.01,60.83,109.9z M57.85,109.92c0,1.32,0.26,2,0.92,2c0.64,0,0.9-0.68,0.9-1.99c0-1.32-0.26-1.94-0.9-1.94
		C58.14,107.99,57.85,108.6,57.85,109.92z"/>
	<path class="st0" d="M61.77,109.04c0-0.91,0-1.51-0.01-1.91h1.09c0.01,0.11,0.03,0.36,0.03,0.96c0.22-0.66,0.74-1.04,1.49-1.04
		v1.26c-0.93,0-1.45,0.38-1.45,1.44v3.04h-1.14V109.04z"/>
	<path class="st0" d="M65.13,108.82c0-1.08,0-1.44-0.01-1.69h1.09c0.02,0.13,0.03,0.42,0.03,0.63c0.25-0.46,0.66-0.73,1.25-0.73
		c0.61,0,0.98,0.28,1.16,0.79c0.22-0.41,0.64-0.79,1.39-0.79c0.77,0,1.41,0.39,1.41,1.68v4.07h-1.12v-3.89
		c0-0.5-0.15-0.88-0.67-0.88c-0.59,0-0.79,0.48-0.79,1.2v3.58h-1.13v-3.87c0-0.58-0.19-0.89-0.66-0.89c-0.57,0-0.8,0.45-0.8,1.24
		v3.52h-1.13V108.82z"/>
	<path class="st0" d="M76.18,111.62c0,0.31,0.03,0.92,0.04,1.16h-1.03c-0.02-0.12-0.06-0.38-0.06-0.56c-0.21,0.38-0.6,0.66-1.3,0.66
		c-1.08,0-1.5-0.86-1.5-1.66c0-1.12,0.77-1.85,2.22-1.85c0.21,0,0.36,0,0.51,0.02v-0.67c0-0.36-0.07-0.8-0.69-0.8
		c-0.64,0-0.7,0.43-0.74,0.8h-1.08c0.02-0.83,0.41-1.69,1.86-1.69c1.17,0,1.76,0.55,1.76,1.62V111.62z M75.09,110.23
		c-0.13-0.02-0.26-0.02-0.47-0.02c-0.83,0-1.14,0.4-1.14,0.91c0,0.41,0.2,0.83,0.73,0.83c0.71,0,0.89-0.53,0.89-1.49V110.23z"/>
	<path class="st0" d="M76.84,107.13h0.76v-1.44h1.13v1.44h0.91v0.95h-0.91v3.3c0,0.35,0.07,0.55,0.48,0.55c0.13,0,0.24,0,0.34-0.02
		v0.85c-0.22,0.1-0.55,0.11-0.75,0.11c-0.83,0-1.21-0.31-1.21-1.29v-3.5h-0.76V107.13z"/>
	<path class="st0" d="M80.38,107.13h1.14v5.65h-1.14V107.13z M80.39,106.21v-1.25h1.14v1.25H80.39z"/>
	<path class="st0" d="M86.59,109.9c0,2.04-0.73,2.99-2.08,2.99s-2.06-0.92-2.06-2.97c0-1.98,0.83-2.89,2.11-2.89
		C85.89,107.03,86.59,108.01,86.59,109.9z M83.61,109.92c0,1.32,0.26,2,0.92,2c0.64,0,0.9-0.68,0.9-1.99c0-1.32-0.26-1.94-0.9-1.94
		C83.91,107.99,83.61,108.6,83.61,109.92z"/>
	<path class="st0" d="M87.54,108.89c0-1.17,0-1.47-0.01-1.76h1.1c0.02,0.14,0.03,0.37,0.03,0.64c0.18-0.35,0.54-0.74,1.29-0.74
		c0.88,0,1.45,0.54,1.45,1.72v4.04h-1.14V109c0-0.61-0.15-0.99-0.71-0.99c-0.59,0-0.86,0.35-0.86,1.32v3.45h-1.14V108.89z"/>
	<path class="st0" d="M95.48,110.73c0.07,0.67,0.35,1.24,1.08,1.24c0.7,0,1-0.42,1-1.08c0-0.67-0.31-1.04-1.28-1.52
		c-1.24-0.58-1.75-1.11-1.75-2.21c0-1.13,0.74-1.96,2.04-1.96c1.6,0,2,1.1,2.02,2.04h-1.13c-0.04-0.4-0.15-1.11-0.91-1.11
		c-0.59,0-0.86,0.4-0.86,0.93c0,0.59,0.26,0.88,1.17,1.3c1.32,0.62,1.88,1.22,1.88,2.43c0,1.17-0.7,2.1-2.21,2.1
		c-1.64,0-2.15-1.06-2.2-2.17H95.48z"/>
	<path class="st0" d="M99.23,107.13h0.76v-1.44h1.13v1.44h0.91v0.95h-0.91v3.3c0,0.35,0.07,0.55,0.48,0.55c0.13,0,0.24,0,0.34-0.02
		v0.85c-0.22,0.1-0.55,0.11-0.75,0.11c-0.83,0-1.21-0.31-1.21-1.29v-3.5h-0.76V107.13z"/>
	<path class="st0" d="M106.6,111.15c0,0.79,0,1.34,0.01,1.63h-1.09c-0.03-0.17-0.04-0.42-0.06-0.66c-0.23,0.53-0.66,0.76-1.29,0.76
		c-0.75,0-1.41-0.35-1.41-1.69v-4.06h1.14v3.79c0,0.62,0.14,0.98,0.67,0.98c0.54,0,0.87-0.31,0.87-1.32v-3.45h1.14V111.15z"/>
	<path class="st0" d="M111.62,104.96v6.29c0,0.63,0,1.2,0.01,1.53h-1.1c-0.01-0.14-0.03-0.46-0.03-0.66
		c-0.17,0.44-0.52,0.76-1.29,0.76c-1.18,0-1.66-1.05-1.66-2.98c0-1.75,0.59-2.87,1.87-2.87c0.65,0,0.95,0.25,1.06,0.5v-2.56H111.62z
		 M109.59,111.9c0.75,0,0.92-0.59,0.92-2.02c0-1.42-0.14-1.87-0.86-1.87c-0.58,0-0.95,0.47-0.95,1.91
		C108.71,111.34,108.99,111.9,109.59,111.9z"/>
	<path class="st0" d="M112.79,107.13h1.14v5.65h-1.14V107.13z M112.8,106.21v-1.25h1.14v1.25H112.8z"/>
	<path class="st0" d="M116.02,110.23c0,0.85,0.12,1.71,0.9,1.71c0.73,0,0.83-0.65,0.85-0.84h1.1c-0.02,0.17-0.17,1.79-1.97,1.79
		c-1.77,0-2.02-1.54-2.02-2.96c0-1.79,0.66-2.9,2.06-2.9c1.59,0,1.98,1.23,1.98,2.68c0,0.17-0.01,0.41-0.02,0.52H116.02z
		 M117.78,109.39c0-0.69-0.11-1.42-0.85-1.42c-0.85,0-0.89,1.01-0.9,1.42H117.78z"/>
	<path class="st0" d="M120.67,111.1c0.01,0.46,0.24,0.9,0.83,0.9c0.5,0,0.73-0.29,0.73-0.7c0-0.46-0.22-0.69-0.91-0.96
		c-1.28-0.47-1.61-0.92-1.61-1.74c0-0.76,0.47-1.57,1.76-1.57c1.41,0,1.77,0.96,1.77,1.71h-1.1c0-0.22-0.04-0.82-0.7-0.82
		c-0.41,0-0.62,0.25-0.62,0.62c0,0.39,0.2,0.57,0.91,0.84c1.17,0.44,1.63,0.88,1.63,1.8c0,1.09-0.68,1.72-1.91,1.72
		c-1.29,0-1.88-0.77-1.89-1.78H120.67z"/>
</g>
</svg>
